Coordinates
version=1
nRows=15
nColumns=42
inDegrees=yes

Units are S.I. units (second, meters, Newtons, ...)
If the header above contains a line with 'inDegrees', this indicates whether rotational values are in degrees (yes) or radians (no).

endheader
time	pelvis_tilt	pelvis_list	pelvis_rotation	pelvis_tx	pelvis_ty	pelvis_tz	hip_flexion_r	hip_adduction_r	hip_rotation_r	knee_angle_r	knee_adduction_r	knee_angle_r_beta	ankle_angle_r	subtalar_angle_r	mtp_angle_r	hip_flexion_l	hip_adduction_l	hip_rotation_l	knee_angle_l	knee_adduction_l	knee_angle_l_beta	ankle_angle_l	subtalar_angle_l	mtp_angle_l	lumbar_extension	lumbar_bending	lumbar_rotation	arm_flex_r	arm_add_r	arm_rot_r	elbow_flex_r	pro_sup_r	wrist_flex_r	wrist_dev_r	arm_flex_l	arm_add_l	arm_rot_l	elbow_flex_l	pro_sup_l	wrist_flex_l	wrist_dev_l
      0.19000000	      8.38835075	     -0.97405486	     -0.27093019	     -0.75436767	      0.79701029	     -0.34248520	     27.87616513	     -3.11449498	    -36.00888295	     24.69055862	     -7.18270928	      0.43093154	     15.67986832	     27.68275179	     -8.32788177	    -22.24319823	     -4.46499349	    -33.92730290	     26.38883686	     -3.14310042	      0.46057209	     27.84487593	     31.89204423	     -8.32788177	    -20.80110604	      3.39507745	     -5.74308446	     -0.88581606	    -16.96822444	     -7.95919232	     36.39582332	     90.00000001	      0.00000000	      0.00000000	      5.93686106	    -12.00519787	    -10.67501653	     64.25326996	     90.00000001	      0.00000000	      0.00000000
      0.20000000	      8.61839111	     -1.34264476	      0.08124691	     -0.73745234	      0.79593290	     -0.34099888	     27.86017333	     -2.52678000	    -35.42526011	     26.55973784	     -8.24541933	      0.46355487	     15.13671962	     26.94967612	     -8.31881120	    -23.05962853	     -5.46387634	    -32.87542075	     27.67769067	     -3.16725777	      0.48306683	     26.37668458	     31.70150774	     -8.31881120	    -20.87523629	      3.90256051	     -5.73413430	     -1.17038375	    -16.96462816	     -8.05326602	     36.26585300	     90.00000001	      0.00000000	      0.00000000	      5.93488353	    -11.89049145	    -10.73123193	     64.30994530	     90.00000001	      0.00000000	      0.00000000
      0.21000000	      8.72306675	     -1.69812789	      0.38589141	     -0.72073197	      0.79527952	     -0.33929606	     27.76626913	     -1.62669658	    -33.27727846	     28.30000435	     -8.84494443	      0.49392825	     13.65565551	     22.38723073	     -8.25963418	    -23.52809093	     -6.30689184	    -31.08162080	     29.12243822	     -3.16834133	      0.50828243	     23.49216277	     29.50721074	     -8.25963418	    -20.86554082	      4.37740844	     -5.73370024	     -1.30765766	    -16.86943240	     -8.49553914	     36.11946061	     90.00000001	      0.00000000	      0.00000000	      5.82196802	    -11.66042266	    -11.14209757	     64.26053107	     90.00000001	      0.00000000	      0.00000000
      0.22000000	      8.86946478	     -2.03791788	      0.60259399	     -0.70397921	      0.79488055	     -0.33741293	     27.62266632	     -0.91061018	    -31.77055073	     30.23103414	     -9.37476677	      0.52763108	     12.69170178	     19.67099513	     -8.21760187	    -23.74478169	     -7.30150288	    -29.79339700	     31.10917580	     -3.23390889	      0.54295755	     20.74466390	     28.01531527	     -8.21760187	    -20.91490405	      4.79756011	     -5.61817351	     -1.40946770	    -16.71309462	     -8.65065739	     35.91719368	     90.00000001	      0.00000000	      0.00000000	      5.63446481	    -11.40408370	    -11.37795846	     63.95603011	     90.00000001	      0.00000000	      0.00000000
      0.23000000	      8.88239896	     -2.40326574	      0.77087977	     -0.68742866	      0.79474903	     -0.33537740	     27.49462990	     -0.08488442	    -29.91553188	     32.10478238	     -9.62745291	      0.56033416	     11.90535812	     16.22928111	     -8.16479744	    -23.45871028	     -8.27645466	    -28.13500052	     33.56312198	     -3.34155367	      0.58578699	     17.69889778	     25.69764534	     -8.16479744	    -20.84885065	      5.24193963	     -5.47512674	     -1.43322159	    -16.72987164	     -8.80447348	     35.71088928	     90.00000001	      0.00000000	      0.00000000	      5.46065901	    -11.27580332	    -11.82011051	     63.52090624	     90.00000001	      0.00000000	      0.00000000
      0.24000000	      8.91981932	     -2.75680695	      0.89393672	     -0.67103988	      0.79482386	     -0.33317588	     27.34604673	      0.54926703	    -29.23290206	     33.95563096	    -10.10440863	      0.59263756	     11.89503713	     15.14031161	     -8.15128934	    -22.74657079	     -9.39024039	    -27.11288545	     36.65630981	     -3.75700376	      0.63977330	     14.75568863	     24.34483766	     -8.15128934	    -20.84061256	      5.63219782	     -5.30752017	     -1.44975385	    -16.67031901	     -8.80783647	     35.65733160	     90.00000001	      0.00000000	      0.00000000	      5.11294443	    -11.18861896	    -12.01007832	     63.13138396	     90.00000001	      0.00000000	      0.00000000
      0.25000000	      8.96861027	     -3.04774964	      0.88826202	     -0.65509673	      0.79555697	     -0.33084379	     26.87680302	      1.30907749	    -27.10921750	     35.53726015	     -9.74403753	      0.62024220	     11.48037352	     11.51815975	     -8.10756805	    -21.84222476	    -10.14921184	    -24.69722833	     39.87743943	     -3.62331194	      0.69599262	     11.40669483	     19.88952652	     -8.10756805	    -20.94982351	      5.91842292	     -4.96953447	     -1.30860638	    -16.59677702	     -8.80114947	     35.47191510	     90.00000001	      0.00000000	      0.00000000	      4.93589032	    -10.91675293	    -12.62169388	     62.24246210	     90.00000001	      0.00000000	      0.00000000
      0.26000000	      8.91773552	     -3.44858148	      0.91876941	     -0.63939730	      0.79619949	     -0.32841308	     26.49662660	      2.00188245	    -26.66787817	     36.88704398	     -9.94365755	      0.64380037	     12.14524843	     10.85760192	     -8.09617999	    -20.22553437	    -11.25357685	    -23.48977012	     43.85782820	     -4.18064981	      0.76546350	      8.92911208	     18.06902207	     -8.09617999	    -20.97085285	      6.30350653	     -4.68470702	     -1.14371890	    -16.52852420	     -8.76699537	     35.51286938	     90.00000001	      0.00000000	      0.00000000	      4.45482502	    -10.85301064	    -12.79959547	     61.69941596	     90.00000001	      0.00000000	      0.00000000
      0.27000000	      8.96653883	     -3.70875995	      0.86904192	     -0.62409576	      0.79755383	     -0.32603332	     25.73416615	      2.58416721	    -25.65239709	     37.92143362	     -9.67111600	      0.66185387	     12.56537424	      9.09915683	     -8.05621247	    -18.57248484	    -11.81935637	    -20.48299070	     47.76434009	     -3.78216808	      0.83364500	      6.02759020	     12.10848666	     -8.05621247	    -21.16247984	      6.51279215	     -4.31086740	     -0.89998886	    -16.44510651	     -8.66879375	     35.42025503	     90.00000001	      0.00000000	      0.00000000	      4.28678928	    -10.62365617	    -13.30980258	     60.52601052	     90.00000001	      0.00000000	      0.00000000
      0.28000000	      8.91327767	     -4.03420725	      0.83751816	     -0.60910476	      0.79894868	     -0.32367006	     24.95194093	      3.13315841	    -25.62961796	     38.58550422	     -9.73074629	      0.67344409	     13.53707894	      8.88104500	     -8.02660472	    -16.37740997	    -12.51210961	    -18.12376685	     51.99220075	     -3.70278500	      0.90743509	      3.84689185	      7.56266279	     -8.02660472	    -21.28074866	      6.77959564	     -3.91631535	     -0.60904097	    -16.39595085	     -8.56349741	     35.44066782	     90.00000001	      0.00000000	      0.00000000	      3.94975964	    -10.47649695	    -13.59361494	     59.45255431	     90.00000001	      0.00000000	      0.00000000
      0.29000000	      8.81668072	     -4.33512042	      0.81687906	     -0.59444444	      0.80061987	     -0.32143566	     24.04093322	      3.58481389	    -26.09001808	     38.88861374	     -9.89200177	      0.67873435	     14.67099081	      9.44310023	     -7.99204118	    -13.88606559	    -13.06741128	    -15.41251725	     56.16684078	     -3.26679837	      0.98029630	      2.16849838	      2.62554359	     -7.99204118	    -21.38459756	      7.01389204	     -3.52548187	     -0.27597921	    -16.35715147	     -8.39999954	     35.49341669	     90.00000001	      0.00000000	      0.00000000	      3.62087957	    -10.33217424	    -13.85012475	     58.23001504	     90.00000001	      0.00000000	      0.00000000
      0.30000000	      8.63375149	     -4.70993510	      0.80678727	     -0.58005663	      0.80238877	     -0.31928181	     23.05850532	      4.13517620	    -26.78139667	     38.82397514	    -10.12651039	      0.67760619	     15.91521905	     10.03946655	     -7.97360022	    -11.02554547	    -13.72796586	    -13.48947924	     60.21416080	     -3.25153646	      1.05093536	      1.56893001	     -0.68904610	     -7.97360022	    -21.41958754	      7.31341041	     -3.08656666	      0.06368279	    -16.32792741	     -8.26876793	     35.63318188	     90.00000001	      0.00000000	      0.00000000	      3.16458234	    -10.18386253	    -13.97927518	     57.20069079	     90.00000001	      0.00000000	      0.00000000
      0.31000000	      8.52454190	     -4.78982195	      0.80408161	     -0.56584961	      0.80468705	     -0.31753951	     21.85920348	      4.13770370	    -28.07181026	     38.55124611	    -10.39121473	      0.67284618	     17.23217775	     12.31167303	     -7.94112795	     -8.20259658	    -13.77347283	    -10.46546097	     63.78138116	     -2.27335817	      1.11319510	      0.26786172	     -6.56363575	     -7.94112795	    -21.54032491	      7.31067811	     -2.69024197	      0.47428268	    -16.33563001	     -8.00767184	     35.63356358	     90.00000001	      0.00000000	      0.00000000	      3.00664849	     -9.96934584	    -14.31301813	     55.48629187	     90.00000001	      0.00000000	      0.00000000
      0.32000000	      8.36083870	     -4.92325551	      0.83080997	     -0.55180117	      0.80708176	     -0.31589888	     20.59710426	      4.26337442	    -29.22412570	     38.03598644	    -10.59514824	      0.66385320	     18.50930984	     14.06560163	     -7.91606566	     -5.15905510	    -13.91227398	     -8.48374407	     66.93456460	     -1.94599969	      1.16822854	      0.23912212	    -10.18168205	     -7.91606566	    -21.59225348	      7.35074562	     -2.25294386	      0.83464218	    -16.36234084	     -7.77382574	     35.70859094	     90.00000001	      0.00000000	      0.00000000	      2.72095382	     -9.73395313	    -14.54227906	     53.97833119	     90.00000001	      0.00000000	      0.00000000
      0.33000000	      8.17921027	     -4.92278043	      0.85270458	     -0.53786520	      0.80966513	     -0.31444401	     19.24031137	      4.21439739	    -30.31146311	     37.33174706	    -10.66678199	      0.65156190	     19.66249335	     16.09929417	     -7.88964358	     -2.04438859	    -13.81976745	     -6.90735412	     69.54477431	     -1.79165565	      1.21378529	      0.55743629	    -12.99905196	     -7.88964358	    -21.63497886	      7.24498091	     -1.82167003	      1.20611224	    -16.38083305	     -7.47844936	     35.81527655	     90.00000001	      0.00000000	      0.00000000	      2.47106324	     -9.52595112	    -14.86846441	     52.44075252	     90.00000001	      0.00000000	      0.00000000
